<?xml version="1.0" encoding="UTF-8" standalone="no"?>
<!-- Created with Inkscape (http://www.inkscape.org/) -->

<svg
   xmlns:dc="http://purl.org/dc/elements/1.1/"
   xmlns:cc="http://creativecommons.org/ns#"
   xmlns:rdf="http://www.w3.org/1999/02/22-rdf-syntax-ns#"
   xmlns:svg="http://www.w3.org/2000/svg"
   xmlns="http://www.w3.org/2000/svg"
   xmlns:sodipodi="http://sodipodi.sourceforge.net/DTD/sodipodi-0.dtd"
   xmlns:inkscape="http://www.inkscape.org/namespaces/inkscape"
   width="194.3168"
   height="44.999279"
   viewBox="0 0 51.412986 11.906059"
   version="1.1"
   id="svg15459"
   inkscape:version="0.92.0 r15299"
   sodipodi:docname="nesma airlines.svg">
  <defs
     id="defs15453">
    <clipPath
       id="clipPath13985"
       clipPathUnits="userSpaceOnUse">
      <path
         inkscape:connector-curvature="0"
         id="path13983"
         d="m 9.212,776.93 h 195.319 v 64.96 H 9.212 Z" />
    </clipPath>
  </defs>
  <sodipodi:namedview
     id="base"
     pagecolor="#ffffff"
     bordercolor="#666666"
     borderopacity="1.0"
     inkscape:pageopacity="0.0"
     inkscape:pageshadow="2"
     inkscape:zoom="4.6866073"
     inkscape:cx="95.698224"
     inkscape:cy="21.999639"
     inkscape:document-units="mm"
     inkscape:current-layer="layer1"
     showgrid="false"
     fit-margin-top="0"
     fit-margin-left="0"
     fit-margin-right="0"
     fit-margin-bottom="0"
     units="px"
     inkscape:window-width="1280"
     inkscape:window-height="744"
     inkscape:window-x="-4"
     inkscape:window-y="-4"
     inkscape:window-maximized="1" />
  <metadata
     id="metadata15456">
    <rdf:RDF>
      <cc:Work
         rdf:about="">
        <dc:format>image/svg+xml</dc:format>
        <dc:type
           rdf:resource="http://purl.org/dc/dcmitype/StillImage" />
        <dc:title></dc:title>
      </cc:Work>
    </rdf:RDF>
  </metadata>
  <g
     inkscape:label="Layer 1"
     inkscape:groupmode="layer"
     id="layer1"
     transform="translate(-67.971913,-169.28857)">
    <g
       id="g15801"
       transform="translate(0.13229023,-0.13228874)">
      <path
         d="m 72.74923,172.90098 c 0,0.27129 -0.128411,0.40781 -0.386997,0.40781 -0.117828,0 -0.251884,-0.0578 -0.401814,-0.17215 l -3.282597,-2.58869 v 2.50755 c 0,0.11677 -0.05045,0.18767 -0.1524,0.21731 -0.05327,0.0116 -0.15487,0.0183 -0.305506,0.0183 -0.165805,0 -0.248003,-0.0773 -0.248003,-0.23283 v -2.98838 c 0,-0.25929 0.121003,-0.38841 0.361245,-0.38841 0.1524,0 0.308328,0.0621 0.467783,0.18697 l 3.241675,2.55905 v -2.48779 c 0,-0.11394 0.05009,-0.1852 0.152753,-0.21307 0.05186,-0.0127 0.153458,-0.019 0.303742,-0.019 0.166158,0 0.250119,0.0762 0.250119,0.22965 z"
         style="fill:#646263;fill-opacity:1;fill-rule:nonzero;stroke:none;stroke-width:0.35277778"
         id="path13989"
         inkscape:connector-curvature="0" />
      <path
         d="m 76.696601,171.64287 v -0.34678 c 0,-0.20955 -0.452967,-0.31538 -1.3589,-0.31538 -0.534458,0 -0.902406,0.0169 -1.100314,0.0529 -0.281516,0.0476 -0.421216,0.14429 -0.421216,0.28681 v 0.32244 z m 0.657578,0.28187 c 0,0.16969 -0.0628,0.25647 -0.186972,0.25647 h -3.332339 v 0.0205 c 0,0.26882 0.16898,0.44168 0.507294,0.51964 0.07408,0.0152 0.180975,0.0279 0.322439,0.0363 0.140053,0.0106 0.319969,0.0141 0.538339,0.0141 0.164394,0 0.246239,0.0956 0.246239,0.28787 0,0.15416 -0.08185,0.23177 -0.246239,0.23177 -0.224367,0 -0.408517,-0.002 -0.551039,-0.007 -0.142522,-0.003 -0.250825,-0.009 -0.324556,-0.0208 -0.368652,-0.0335 -0.638174,-0.1143 -0.81033,-0.23989 -0.246592,-0.17815 -0.3683,-0.3877 -0.3683,-0.62794 v -1.0347 c 0,-0.32491 0.189442,-0.56409 0.570089,-0.72214 0.270933,-0.11218 0.61595,-0.17039 1.03505,-0.17039 h 1.249891 c 0.346428,0 0.636764,0.0543 0.872067,0.16193 0.318911,0.13652 0.478367,0.3436 0.478367,0.61806 z"
         style="fill:#646263;fill-opacity:1;fill-rule:nonzero;stroke:none;stroke-width:0.35277778"
         id="path13993"
         inkscape:connector-curvature="0" />
      <path
         d="m 81.48048,172.48308 c 0,0.53869 -0.442383,0.80821 -1.326092,0.80821 h -2.264833 c -0.1651,0 -0.24765,-0.0772 -0.24765,-0.23177 0,-0.19227 0.08255,-0.28787 0.246945,-0.28787 h 2.267302 c 0.4191,0 0.627592,-0.0938 0.627592,-0.28504 v -0.10584 c 0,-0.16898 -0.189795,-0.25435 -0.571853,-0.25435 h -1.088319 c -1.000831,0 -1.501775,-0.25964 -1.501775,-0.77787 v -0.15381 c 0,-0.34432 0.251178,-0.5641 0.753886,-0.6604 0.206375,-0.0448 0.60078,-0.066 1.183216,-0.066 0.167217,0 0.249767,0.0981 0.249767,0.2921 0,0.1531 -0.08255,0.2286 -0.249767,0.2286 h -0.482952 c -0.251178,0 -0.402167,0.002 -0.453672,0.009 -0.220487,0.0257 -0.334081,0.0903 -0.334081,0.19085 v 0.14675 c 0,0.16898 0.279753,0.25365 0.837494,0.25365 h 1.113014 c 0.827617,0 1.241778,0.25435 1.241778,0.76235 z"
         style="fill:#646263;fill-opacity:1;fill-rule:nonzero;stroke:none;stroke-width:0.35277778"
         id="path13997"
         inkscape:connector-curvature="0" />
      <path
         d="m 87.598422,173.05828 c 0,0.15557 -0.08467,0.23283 -0.249061,0.23283 -0.1651,0 -0.261408,-0.009 -0.290689,-0.0279 -0.09172,-0.0289 -0.137936,-0.0988 -0.137936,-0.21131 v -1.73708 c 0,-0.22331 -0.28575,-0.33408 -0.856897,-0.33408 h -0.08784 -0.04057 -0.03881 c -0.272697,0.009 -0.455436,0.0268 -0.543983,0.0529 -0.200378,0.0547 -0.297745,0.17286 -0.297745,0.35807 v 1.66017 c 0,0.11254 -0.04763,0.18239 -0.137583,0.21131 -0.03034,0.019 -0.127,0.0279 -0.289631,0.0279 -0.165805,0 -0.250119,-0.0773 -0.250119,-0.23283 v -1.6697 c 0,-0.16616 -0.06562,-0.27869 -0.194381,-0.33761 -0.08925,-0.0399 -0.234597,-0.0617 -0.434622,-0.0617 h -0.0829 -0.05327 -0.02787 -0.02999 c -0.04092,-0.003 -0.07796,-0.006 -0.109713,-0.008 -0.03281,-7.1e-4 -0.05927,-7.1e-4 -0.07973,-7.1e-4 -0.576439,0 -0.864306,0.11395 -0.864306,0.33973 v 1.73143 c 0,0.11254 -0.04374,0.18239 -0.131233,0.21131 -0.03069,0.019 -0.125942,0.0279 -0.288925,0.0279 -0.164747,0 -0.246945,-0.0773 -0.246945,-0.23283 v -1.66899 c 0,-0.61278 0.487892,-0.92075 1.462617,-0.92075 0.191911,0 0.34925,0.003 0.4699,0.005 0.123472,0.002 0.212725,0.008 0.27305,0.0141 0.255058,0.0317 0.486128,0.10653 0.697795,0.2233 0.196144,-0.11253 0.430741,-0.18309 0.705908,-0.21413 0.149578,-0.0194 0.397228,-0.0279 0.747183,-0.0279 0.938389,0 1.408289,0.30797 1.408289,0.92075 z"
         style="fill:#646263;fill-opacity:1;fill-rule:nonzero;stroke:none;stroke-width:0.35277778"
         id="path14001"
         inkscape:connector-curvature="0" />
      <path
         d="m 91.821278,172.2985 c 0,-0.0279 0,-0.0621 -0.0021,-0.10336 -0.0028,-0.0409 -0.0035,-0.0889 -0.0074,-0.145 v -0.14358 -0.1023 H 89.43015 c -0.140758,0 -0.285044,0.0233 -0.432505,0.0705 -0.193322,0.061 -0.289278,0.14182 -0.289278,0.23707 v 0.35736 c 0,0.10337 0.09913,0.18204 0.297744,0.23778 0.137937,0.0423 0.286456,0.0649 0.442031,0.0649 h 1.665464 c 0.249414,0 0.420864,-0.0226 0.513291,-0.0681 0.130175,-0.0603 0.194381,-0.19544 0.194381,-0.40534 m 0.657931,0.14499 c 0,0.5655 -0.457906,0.84773 -1.372659,0.84773 h -1.6383 c -0.347839,0 -0.651933,-0.0593 -0.911225,-0.17886 -0.343252,-0.15346 -0.515408,-0.36548 -0.515408,-0.63747 v -0.35842 c 0,-0.29422 0.162631,-0.51541 0.490714,-0.66217 0.244122,-0.11359 0.548217,-0.17004 0.912636,-0.17004 h 2.366786 c -0.03704,-0.20284 -0.337608,-0.30374 -0.906992,-0.30374 -0.02364,0 -0.0515,0 -0.08325,0.001 -0.03351,0.002 -0.07232,0.005 -0.113947,0.007 h -0.03105 -0.02928 -0.05115 -0.07796 c -0.164395,0 -0.249061,-0.0963 -0.249061,-0.28963 0,-0.1524 0.08467,-0.23072 0.249061,-0.23072 0.543983,0 0.954264,0.0356 1.226961,0.10407 0.490361,0.12665 0.734131,0.38206 0.734131,0.76482 z"
         style="fill:#646263;fill-opacity:1;fill-rule:nonzero;stroke:none;stroke-width:0.35277778"
         id="path14005"
         inkscape:connector-curvature="0" />
      <path
         d="m 98.570834,171.8292 -1.054806,-1.5561 -1.061861,1.5561 z m 1.686986,1.31868 c 0,0.0953 -0.0328,0.17533 -0.0977,0.23989 -0.0635,0.0649 -0.14358,0.0967 -0.240597,0.0967 -0.13335,0 -0.2413,-0.0614 -0.325613,-0.18732 l -0.616656,-0.89288 h -2.928761 l -0.618419,0.89288 c -0.06668,0.0974 -0.137584,0.14781 -0.214842,0.14781 -0.07691,0 -0.151342,-0.0261 -0.221897,-0.0755 -0.08043,-0.0536 -0.119239,-0.11854 -0.119239,-0.19121 0,-0.0229 0.006,-0.0437 0.01764,-0.0624 l 2.196747,-3.35703 c 0.09066,-0.13759 0.245886,-0.20567 0.464608,-0.20567 0.162631,0 0.270933,0.0455 0.325614,0.13758 0.0046,0.006 0.0088,0.0141 0.01446,0.0261 0.0035,0.0123 0.01235,0.0261 0.02434,0.042 l 2.328695,3.29424 c 0.007,0.0162 0.0116,0.0459 0.0116,0.0949"
         style="fill:#646263;fill-opacity:1;fill-rule:nonzero;stroke:none;stroke-width:0.35277778"
         id="path14009"
         inkscape:connector-curvature="0" />
      <path
         d="m 101.30123,173.16196 c 0,0.16369 -0.0829,0.24518 -0.2473,0.24518 -0.16016,0 -0.25541,-0.006 -0.28222,-0.0201 -0.0857,-0.0321 -0.12806,-0.10654 -0.12806,-0.22507 v -2.51954 c 0,-0.16369 0.0822,-0.24518 0.24695,-0.24518 0.15875,0 0.25223,0.008 0.28046,0.0222 0.0857,0.0318 0.13017,0.10477 0.13017,0.22295 z m 0.0907,-3.16477 c 0,0.10901 -0.0462,0.19438 -0.13793,0.25682 -0.079,0.0536 -0.17674,0.0815 -0.29069,0.0815 -0.11571,0 -0.21202,-0.0279 -0.2921,-0.0815 -0.0917,-0.0624 -0.13829,-0.14781 -0.13829,-0.25682 0,-0.1083 0.0466,-0.19332 0.13829,-0.25541 0.0801,-0.0554 0.17639,-0.0822 0.2921,-0.0822 0.11395,0 0.21167,0.0268 0.29069,0.0822 0.0917,0.0621 0.13793,0.14711 0.13793,0.25541"
         style="fill:#646263;fill-opacity:1;fill-rule:nonzero;stroke:none;stroke-width:0.35277778"
         id="path14013"
         inkscape:connector-curvature="0" />
      <path
         d="m 103.67278,170.71965 c 0,0.16369 -0.0981,0.24694 -0.29527,0.24694 -0.0265,0 -0.0653,-0.002 -0.11642,-0.005 -0.0508,-0.002 -0.0896,-0.004 -0.11748,-0.004 -0.50694,0 -0.76023,0.12664 -0.76023,0.37853 v 1.82633 c 0,0.121 -0.0476,0.1972 -0.13935,0.22754 -0.0374,0.0109 -0.13335,0.0166 -0.28751,0.0166 -0.15875,0 -0.23566,-0.0829 -0.23566,-0.25118 v -1.81927 c 0,-0.39194 0.20144,-0.65793 0.60607,-0.79657 0.24483,-0.0889 0.61207,-0.1323 1.0982,-0.1323 0.16404,0 0.24765,0.10407 0.24765,0.31186"
         style="fill:#646263;fill-opacity:1;fill-rule:nonzero;stroke:none;stroke-width:0.35277778"
         id="path14017"
         inkscape:connector-curvature="0" />
      <path
         d="m 104.72388,173.16059 c 0,0.1651 -0.0818,0.24659 -0.24483,0.24659 -0.16051,0 -0.25435,-0.006 -0.28187,-0.0201 -0.0903,-0.0335 -0.13441,-0.10759 -0.13441,-0.22507 v -3.32352 c 0,-0.16298 0.0811,-0.24518 0.24236,-0.24518 0.15311,0 0.24977,0.007 0.28646,0.0212 0.0878,0.03 0.13229,0.10407 0.13229,0.22648 z"
         style="fill:#646263;fill-opacity:1;fill-rule:nonzero;stroke:none;stroke-width:0.35277778"
         id="path14021"
         inkscape:connector-curvature="0" />
      <path
         d="m 105.93158,173.16196 c 0,0.16369 -0.0829,0.24518 -0.24765,0.24518 -0.16192,0 -0.25471,-0.006 -0.28152,-0.0201 -0.0861,-0.0321 -0.12911,-0.10654 -0.12911,-0.22507 v -2.51954 c 0,-0.16369 0.0829,-0.24518 0.24765,-0.24518 0.15875,0 0.25188,0.008 0.27904,0.0222 0.0871,0.0318 0.13159,0.10477 0.13159,0.22295 z m 0.09,-3.16477 c 0,0.10901 -0.0455,0.19438 -0.13758,0.25682 -0.0794,0.0536 -0.1778,0.0815 -0.29175,0.0815 -0.11536,0 -0.21237,-0.0279 -0.29175,-0.0815 -0.0907,-0.0624 -0.13617,-0.14781 -0.13617,-0.25682 0,-0.1083 0.0455,-0.19332 0.13617,-0.25541 0.0794,-0.0554 0.17639,-0.0822 0.29175,-0.0822 0.11395,0 0.21237,0.0268 0.29175,0.0822 0.0921,0.0621 0.13758,0.14711 0.13758,0.25541"
         style="fill:#646263;fill-opacity:1;fill-rule:nonzero;stroke:none;stroke-width:0.35277778"
         id="path14025"
         inkscape:connector-curvature="0" />
      <path
         d="m 110.53829,173.15967 c 0,0.1651 -0.0833,0.24765 -0.24624,0.24765 -0.16404,0 -0.25753,-0.006 -0.28398,-0.0205 -0.091,-0.0318 -0.13547,-0.10619 -0.13547,-0.22472 v -1.911 c 0,-0.13723 -0.11218,-0.22578 -0.33655,-0.26705 -0.0392,-0.007 -0.1016,-0.0145 -0.1838,-0.0166 -0.0829,-0.004 -0.18803,-0.005 -0.31115,-0.005 h -1.13947 c -0.1143,0 -0.21061,0.002 -0.28928,0.007 -0.0783,0.004 -0.1404,0.01 -0.18662,0.018 -0.21202,0.0413 -0.31891,0.13053 -0.31891,0.26529 v 1.90818 c 0,0.16404 -0.0811,0.24659 -0.24412,0.24659 -0.16334,0 -0.25859,-0.006 -0.28469,-0.0205 -0.0889,-0.0318 -0.13371,-0.10619 -0.13371,-0.22472 v -1.90394 c 0,-0.57044 0.5073,-0.85408 1.51624,-0.85408 h 1.07809 c 1.00013,0 1.49966,0.28223 1.49966,0.84773 z"
         style="fill:#646263;fill-opacity:1;fill-rule:nonzero;stroke:none;stroke-width:0.35277778"
         id="path14029"
         inkscape:connector-curvature="0" />
      <path
         d="m 114.40675,171.65627 v -0.36901 c 0,-0.22507 -0.44767,-0.33584 -1.34091,-0.33584 -0.52775,0 -0.88935,0.0183 -1.08655,0.0554 -0.27729,0.0512 -0.41522,0.15345 -0.41522,0.30656 v 0.3429 z m 0.64523,0.29951 c 0,0.18203 -0.0607,0.27234 -0.1845,0.27234 h -3.28436 v 0.0215 c 0,0.28469 0.16933,0.46743 0.50129,0.54998 0.0737,0.0162 0.17957,0.0293 0.31856,0.0395 0.13794,0.009 0.31539,0.0141 0.53093,0.0141 0.16087,0 0.24271,0.10055 0.24271,0.30657 0,0.16475 -0.0818,0.2473 -0.24271,0.2473 -0.2226,0 -0.40393,-7.1e-4 -0.54257,-0.004 -0.14076,-0.003 -0.24906,-0.01 -0.32209,-0.0166 -0.363,-0.0381 -0.63076,-0.12347 -0.80151,-0.25753 -0.24341,-0.18909 -0.36442,-0.4131 -0.36442,-0.66887 v -1.1056 c 0,-0.34749 0.18662,-0.60255 0.56268,-0.77117 0.25506,-0.11924 0.59585,-0.17957 1.01989,-0.17957 h 1.23295 c 0.34573,0 0.63359,0.0561 0.86149,0.17216 0.31467,0.14393 0.47166,0.36406 0.47166,0.65758 z"
         style="fill:#646263;fill-opacity:1;fill-rule:nonzero;stroke:none;stroke-width:0.35277778"
         id="path14033"
         inkscape:connector-curvature="0" />
      <path
         d="m 119.12032,172.55025 c 0,0.57044 -0.43568,0.8569 -1.30563,0.8569 h -2.23379 c -0.16298,0 -0.24483,-0.0825 -0.24483,-0.24765 0,-0.20567 0.0818,-0.30621 0.24483,-0.30621 h 2.2352 c 0.41205,0 0.61983,-0.10266 0.61983,-0.30304 v -0.11254 c 0,-0.18132 -0.18838,-0.27199 -0.56374,-0.27199 h -1.07315 c -0.98566,0 -1.47919,-0.27587 -1.47919,-0.82761 v -0.16369 c 0,-0.36513 0.24765,-0.59831 0.74683,-0.70238 0.0995,-0.0219 0.24765,-0.0409 0.44026,-0.0512 0.19156,-0.0109 0.43462,-0.0169 0.72672,-0.0169 0.16581,0 0.24765,0.10513 0.24765,0.31327 0,0.16404 -0.0818,0.24482 -0.24765,0.24482 h -0.47625 c -0.24941,0 -0.39722,0.003 -0.44767,0.008 -0.21908,0.0286 -0.32844,0.0974 -0.32844,0.20391 v 0.15769 c 0,0.18097 0.27552,0.27128 0.82233,0.27128 h 1.09396 c 0.81668,0 1.22273,0.26953 1.22273,0.80928 z"
         style="fill:#646263;fill-opacity:1;fill-rule:nonzero;stroke:none;stroke-width:0.35277778"
         id="path14037"
         inkscape:connector-curvature="0" />
      <path
         d="m 69.929371,175.86445 c 0.06632,0 0.129469,0.0141 0.187325,0.0409 0.05786,0.0236 0.110419,0.0589 0.154164,0.10337 0.0448,0.0445 0.07902,0.0956 0.10548,0.15451 0.02575,0.0596 0.0381,0.12277 0.0381,0.18909 0,0.0646 -0.01235,0.12806 -0.0381,0.18697 -0.02646,0.0593 -0.06068,0.11042 -0.10548,0.15205 -0.04375,0.0423 -0.09631,0.0769 -0.154164,0.10372 -0.05786,0.0247 -0.121003,0.0377 -0.187325,0.0377 -0.06632,0 -0.129117,-0.013 -0.188031,-0.0377 -0.05856,-0.0268 -0.109713,-0.0614 -0.154516,-0.10372 -0.04516,-0.0416 -0.08043,-0.0928 -0.105481,-0.15205 -0.02575,-0.0589 -0.03845,-0.12241 -0.03845,-0.18697 0,-0.0663 0.0127,-0.12947 0.03845,-0.18909 0.02505,-0.0589 0.06033,-0.11006 0.105481,-0.15451 0.0448,-0.0444 0.09596,-0.0797 0.154516,-0.10337 0.05891,-0.0268 0.121709,-0.0409 0.188031,-0.0409 m -1.008239,2.12407 c -0.0039,0.13406 0.006,0.27129 0.02963,0.40676 0.02505,0.13723 0.06773,0.26176 0.132645,0.37782 0.06385,0.11712 0.150989,0.21943 0.258233,0.30586 0.109714,0.0857 0.24765,0.14252 0.414161,0.17533 0.159103,0.03 0.309739,0.0254 0.451556,-0.0145 0.142522,-0.0395 0.268464,-0.10301 0.379236,-0.19121 0.0829,-0.072 0.148872,-0.14746 0.197203,-0.23071 0.05045,-0.0822 0.08678,-0.16828 0.113241,-0.26282 0.0254,-0.0938 0.04092,-0.19227 0.04762,-0.29528 0.006,-0.10477 0.0088,-0.21484 0.0088,-0.32985 l 0.0032,-1.09714 h 0.960967 l 0.0035,1.08832 c 0,0.2667 -0.02364,0.50518 -0.0695,0.71861 -0.04762,0.21414 -0.126294,0.3997 -0.237772,0.56021 -0.111831,0.1577 -0.259645,0.29175 -0.445206,0.39617 -0.18415,0.10548 -0.414514,0.18486 -0.68968,0.23566 -0.416278,0.0402 -0.779286,0.0145 -1.089731,-0.0762 -0.309739,-0.0914 -0.569383,-0.22578 -0.775053,-0.40287 -0.205669,-0.17533 -0.361597,-0.38383 -0.464961,-0.62301 -0.103364,-0.23812 -0.156986,-0.48507 -0.160161,-0.74119 z"
         style="fill:#646263;fill-opacity:1;fill-rule:nonzero;stroke:none;stroke-width:0.35277778"
         id="path14041"
         inkscape:connector-curvature="0" />
      <path
         d="m 72.652322,175.63275 h 0.968375 l 0.0042,2.67229 v 0.38629 c 0,0.12559 -0.0078,0.2413 -0.02011,0.35313 -0.01411,0.11007 -0.03845,0.21202 -0.07549,0.30551 -0.03775,0.0931 -0.09066,0.17215 -0.162984,0.23636 -0.07055,0.0649 -0.163336,0.11536 -0.277989,0.15028 -0.113241,0.0339 -0.256116,0.0483 -0.427566,0.043 z"
         style="fill:#646263;fill-opacity:1;fill-rule:nonzero;stroke:none;stroke-width:0.35277778"
         id="path14045"
         inkscape:connector-curvature="0" />
      <path
         sodipodi:nodetypes="ccccccccccccccsccscccccccccccccscccccccccsccsccccccscccscccscccscccsscccscccscccscccs"
         inkscape:connector-curvature="0"
         id="path14049"
         transform="scale(0.26458333)"
         d="m 286.72461,668.31055 0.043,7.94922 c 0,0.74532 -0.0893,1.3858 -0.25196,1.92578 -0.16533,0.54534 -0.40738,1.01248 -0.7207,1.39648 -0.316,0.37999 -0.69858,0.69839 -1.14258,0.95313 -0.444,0.24517 -0.94462,0.45328 -1.50195,0.60937 v 2.31055 c 1.04267,-0.14801 1.94957,-0.35363 2.74023,-0.60156 0.78667,-0.24666 1.46664,-0.56575 2.0293,-0.95508 0.56667,-0.39466 1.0255,-0.87114 1.38281,-1.42578 0.35867,-0.55869 0.62044,-1.21922 0.78711,-1.97657 0.43601,0.19352 0.888,0.35317 1.36133,0.48243 0.47467,0.12245 0.9566,0.22115 1.44727,0.29296 0.488,0.0786 0.98447,0.13383 1.48047,0.16407 0.49733,0.0314 0.97641,0.0469 1.45507,0.0469 h 0.55274 l -0.55274,-2.2168 h -0.9082 c -0.54533,0 -1.07651,-0.0615 -1.58984,-0.19335 -0.516,-0.1307 -0.97014,-0.33303 -1.35547,-0.59571 -0.32667,-0.21732 -0.59031,-0.4509 -0.79297,-0.71094 -0.20534,-0.25999 -0.36712,-0.53231 -0.48047,-0.82031 -0.11467,-0.29197 -0.20127,-0.58353 -0.25195,-0.88476 -0.0507,-0.30267 -0.0784,-0.60559 -0.0879,-0.91211 l 0.0117,-4.83789 z m 14.90234,0.0586 -0.0156,5.67578 c -0.0373,0.548 -0.1839,1.02106 -0.44922,1.42774 -0.25333,0.39602 -0.58809,0.73178 -0.99609,1.0039 -0.408,0.26132 -0.86815,0.46493 -1.38282,0.59571 -0.51333,0.13341 -1.04246,0.1914 -1.59179,0.1914 h -1.33789 l 0.55859,2.21875 c 0.6,0 1.22409,-0.032 1.85742,-0.0879 0.63467,-0.0627 1.26105,-0.16163 1.87305,-0.29883 0.61466,-0.144 1.2113,-0.32747 1.7793,-0.55273 0.56266,-0.22401 1.07144,-0.50763 1.52343,-0.85156 0.45467,0.35066 0.9645,0.64306 1.53516,0.86718 0.56934,0.22545 1.1664,0.41138 1.78906,0.55274 0.628,0.14022 1.26401,0.23772 1.91602,0.29101 0.64533,0.0537 1.27862,0.0801 1.89062,0.0801 h 0.55664 l -0.55664,-2.21875 h -0.91797 c -0.54533,0 -1.07908,-0.058 -1.59375,-0.1914 -0.508,-0.13066 -0.97676,-0.33259 -1.38476,-0.59375 -0.40667,-0.27198 -0.73869,-0.60789 -1,-1.00391 -0.26135,-0.40668 -0.40733,-0.88169 -0.43946,-1.42969 l 0.0215,-5.67578 z m -0.22656,12.80274 c -0.25466,0 -0.4903,0.0453 -0.70898,0.13867 -0.22666,0.0879 -0.42195,0.22073 -0.58594,0.38476 -0.16933,0.168 -0.30122,0.36389 -0.39453,0.5918 -0.10001,0.22137 -0.14649,0.46023 -0.14649,0.70703 0,0.24798 0.0465,0.48442 0.14649,0.70703 0.0933,0.22288 0.22521,0.41731 0.39453,0.58399 0.164,0.17204 0.35928,0.29783 0.58594,0.39648 0.21866,0.0945 0.45432,0.14844 0.70898,0.14844 0.24667,0 0.4857,-0.0539 0.70703,-0.14844 0.22267,-0.0987 0.41536,-0.22452 0.58203,-0.39648 0.16934,-0.16668 0.30439,-0.36137 0.40039,-0.58399 0.0947,-0.22265 0.13868,-0.45909 0.13868,-0.70703 0,-0.24669 -0.044,-0.48555 -0.13868,-0.70703 -0.096,-0.22783 -0.23106,-0.42361 -0.40039,-0.5918 -0.16666,-0.16384 -0.35938,-0.2967 -0.58203,-0.38476 -0.22133,-0.0934 -0.46038,-0.13867 -0.70703,-0.13867 z m 4.21875,0 c -0.24667,0 -0.48835,0.0453 -0.70703,0.13867 -0.22666,0.0879 -0.41741,0.22073 -0.58008,0.38476 -0.16135,0.168 -0.28999,0.36389 -0.38867,0.5918 -0.0973,0.22137 -0.14844,0.46023 -0.14844,0.70703 0,0.24798 0.0511,0.48442 0.14844,0.70703 0.0987,0.22288 0.22732,0.41731 0.38867,0.58399 0.16267,0.17204 0.35342,0.29783 0.58008,0.39648 0.21866,0.0945 0.46038,0.14844 0.70703,0.14844 0.252,0 0.48898,-0.0539 0.70898,-0.14844 0.22,-0.0987 0.41477,-0.22452 0.58008,-0.39648 0.17065,-0.16668 0.30512,-0.36137 0.39844,-0.58399 0.1,-0.22265 0.14648,-0.45909 0.14648,-0.70703 0,-0.24669 -0.0465,-0.48555 -0.14648,-0.70703 -0.0933,-0.22783 -0.22775,-0.42361 -0.39844,-0.5918 -0.16533,-0.16384 -0.36007,-0.2967 -0.58008,-0.38476 -0.22,-0.0934 -0.45696,-0.13867 -0.70898,-0.13867 z"
         style="fill:#646263;fill-opacity:1;fill-rule:nonzero;stroke:none;stroke-width:1.33333337" />
      <path
         d="m 86.49959,179.19291 c 0.144639,0 0.28575,-0.0176 0.422275,-0.0554 0.136525,-0.0367 0.254353,-0.0907 0.36195,-0.1651 0.104775,-0.0734 0.189089,-0.16368 0.253294,-0.2741 0.06456,-0.11007 0.09596,-0.24025 0.09596,-0.38912 0,-0.15169 -0.03246,-0.28363 -0.100542,-0.39511 -0.06703,-0.11007 -0.156986,-0.2032 -0.265641,-0.27517 -0.10795,-0.0709 -0.23107,-0.12629 -0.366184,-0.16157 -0.135114,-0.0349 -0.269522,-0.0536 -0.401108,-0.0536 h -1.601258 c -0.185561,0 -0.347134,0.0279 -0.490714,0.0815 -0.140406,0.0536 -0.260703,0.13088 -0.358775,0.23072 -0.09596,0.10125 -0.170392,0.2219 -0.221897,0.36124 -0.05221,0.14217 -0.07761,0.2981 -0.07761,0.46779 l 0.0035,0.62794 z m -4.32435,0 h 0.610306 l -0.0025,-3.56023 h 0.966259 v 1.40511 c 0.06844,-0.0275 0.136172,-0.0512 0.206727,-0.0723 0.0695,-0.0208 0.137936,-0.0392 0.210609,-0.0536 0.122413,-0.0279 0.263525,-0.0473 0.426508,-0.0571 0.161572,-0.012 0.345017,-0.0159 0.548217,-0.0159 h 1.114777 c 0.206023,0 0.391584,0.004 0.552803,0.0159 0.161925,0.01 0.303742,0.0293 0.427214,0.0554 0.217311,0.0437 0.430742,0.121 0.635706,0.236 0.113947,0.0699 0.2159,0.145 0.309738,0.23248 0.09349,0.0847 0.173214,0.17639 0.240242,0.27588 0.06526,0.0977 0.115711,0.20143 0.153106,0.31079 0.03316,0.11042 0.05256,0.22472 0.05256,0.34326 0,0.18979 -0.03281,0.35912 -0.09313,0.50447 -0.06385,0.14499 -0.150989,0.2727 -0.265289,0.37994 h 0.564798 l 0.148166,0.58702 h -6.659033 z"
         style="fill:#646263;fill-opacity:1;fill-rule:nonzero;stroke:none;stroke-width:0.35277778"
         id="path14057"
         inkscape:connector-curvature="0" />
      <path
         d="m 90.514624,175.63275 h 0.958497 v 2.70686 c 0.0095,0.14605 0.0508,0.27023 0.120297,0.37783 0.0695,0.10618 0.156987,0.19544 0.2667,0.2674 0.107245,0.0692 0.228248,0.12277 0.36442,0.15734 0.136878,0.0349 0.277636,0.0508 0.421569,0.0508 h 0.240242 l 0.146756,0.58667 h -0.151342 c -0.158397,0 -0.324556,-0.007 -0.496711,-0.0208 -0.172156,-0.0141 -0.339372,-0.0402 -0.505178,-0.0773 -0.164747,-0.0374 -0.324556,-0.0864 -0.475897,-0.14605 -0.151342,-0.0593 -0.287867,-0.13723 -0.40887,-0.23001 -0.12065,0.0928 -0.255411,0.17074 -0.408164,0.23001 -0.150636,0.0596 -0.309386,0.10866 -0.475544,0.14605 -0.166158,0.037 -0.333375,0.0632 -0.505883,0.0773 -0.173214,0.0141 -0.338667,0.0208 -0.499181,0.0208 h -0.123119 l -0.14605,-0.58667 h 0.503766 c 0.146403,0 0.288573,-0.0159 0.425098,-0.0508 0.136525,-0.0346 0.25788,-0.0882 0.366183,-0.15734 0.106892,-0.072 0.195792,-0.16122 0.263878,-0.2674 0.0695,-0.1076 0.109714,-0.23178 0.121708,-0.37783 z"
         style="fill:#646263;fill-opacity:1;fill-rule:nonzero;stroke:none;stroke-width:0.35277778"
         id="path14061"
         inkscape:connector-curvature="0" />
      <path
         d="m 94.516324,175.63275 h 0.963789 c 0.0014,0.45085 0.0014,0.8957 -0.0035,1.33809 -0.0025,0.44308 -0.0025,0.88935 0.0035,1.33773 0,0.19791 -0.03598,0.37289 -0.105481,0.52282 -0.06985,0.14922 -0.164394,0.27975 -0.282927,0.3877 -0.118534,0.1083 -0.257881,0.20073 -0.41522,0.2727 -0.15875,0.0716 -0.326319,0.12947 -0.500944,0.17215 -0.174978,0.0434 -0.355953,0.0741 -0.537986,0.0917 -0.185209,0.0148 -0.363009,0.024 -0.535164,0.024 h -0.07973 l -0.147108,-0.58667 h 0.467077 c 0.151342,0 0.299509,-0.0176 0.440267,-0.0561 0.143581,-0.0384 0.269522,-0.0974 0.377825,-0.17674 0.109714,-0.0769 0.195792,-0.17463 0.262467,-0.29245 0.0635,-0.11783 0.09454,-0.25506 0.09313,-0.41558 z"
         style="fill:#646263;fill-opacity:1;fill-rule:nonzero;stroke:none;stroke-width:0.35277778"
         id="path14065"
         inkscape:connector-curvature="0" />
      <path
         d="m 97.720639,178.25226 c -0.0025,0.16051 0.02857,0.29739 0.09207,0.41522 0.06703,0.11783 0.154517,0.2159 0.264231,0.2928 0.111125,0.0794 0.237066,0.13794 0.379236,0.17639 0.142169,0.0388 0.288925,0.0561 0.441325,0.0561 h 0.227189 l 0.148166,0.58702 H 99.14374 c -0.174978,0 -0.352425,-0.01 -0.537634,-0.0243 -0.18415,-0.0176 -0.364772,-0.048 -0.53975,-0.0914 -0.177447,-0.043 -0.344311,-0.1009 -0.499533,-0.17216 -0.156986,-0.072 -0.293511,-0.16475 -0.410986,-0.2727 -0.117828,-0.1083 -0.211667,-0.23847 -0.280811,-0.38805 -0.06844,-0.14993 -0.105834,-0.32456 -0.105834,-0.52247 -0.0025,-0.44838 -0.0039,-0.89499 -0.0053,-1.33808 -0.0021,-0.44238 -0.0035,-0.88724 -0.0064,-1.33773 h 0.963083 z"
         style="fill:#646263;fill-opacity:1;fill-rule:nonzero;stroke:none;stroke-width:0.35277778"
         id="path14069"
         inkscape:connector-curvature="0" />
      <path
         d="m 101.31245,177.5502 c -0.11853,0.0649 -0.21484,0.14464 -0.29034,0.24306 -0.0744,0.0981 -0.12594,0.20285 -0.15592,0.31891 -0.03,0.1143 -0.0353,0.22896 -0.0166,0.34749 0.0183,0.11818 0.0628,0.22684 0.13088,0.32738 0.0709,0.10301 0.16016,0.18697 0.26705,0.25294 0.10583,0.0677 0.22084,0.11359 0.34396,0.13829 0.12206,0.0265 0.24871,0.0317 0.37888,0.0155 0.12912,-0.0166 0.25224,-0.0564 0.36759,-0.11888 0.11854,-0.0646 0.21485,-0.14605 0.28752,-0.24554 0.0755,-0.0995 0.1277,-0.20531 0.15875,-0.31997 0.0279,-0.1143 0.0328,-0.23107 0.0162,-0.34925 -0.0191,-0.11994 -0.0642,-0.23001 -0.13194,-0.33337 -0.0709,-0.1016 -0.1584,-0.18415 -0.26564,-0.24942 -0.10478,-0.067 -0.21696,-0.11218 -0.34149,-0.13617 -0.12171,-0.0247 -0.24836,-0.0293 -0.37818,-0.012 -0.13088,0.0173 -0.25365,0.0593 -0.37077,0.121 m 1.13559,-0.68298 c 0.10054,0.0254 0.20003,0.0547 0.2981,0.09 0.0988,0.037 0.19403,0.0829 0.2854,0.13758 0.11747,0.0723 0.22225,0.15382 0.31608,0.24342 0.0945,0.091 0.17639,0.19085 0.24624,0.29633 0.0681,0.10725 0.12101,0.21943 0.16016,0.33408 0.0371,0.11818 0.0561,0.23566 0.0561,0.35596 0.002,0.18485 -0.025,0.34819 -0.0833,0.49247 -0.0579,0.14288 -0.13899,0.26882 -0.24095,0.37571 h 0.6029 l 0.14817,0.58703 h -0.96344 l -0.27587,0.009 c -0.0356,0 -0.0684,0.002 -0.0995,0.005 -0.0296,0.002 -0.0575,0.005 -0.0825,0.007 -0.0254,0.005 -0.0526,0.009 -0.0773,0.01 -0.18239,0.0127 -0.36971,0.0208 -0.55739,0.0258 -0.18627,0.006 -0.37359,-0.002 -0.55739,-0.0215 -0.18556,-0.0201 -0.36901,-0.0557 -0.55139,-0.10689 -0.18098,-0.0536 -0.35666,-0.12489 -0.52599,-0.22049 -0.0787,0.0921 -0.17921,0.16651 -0.30233,0.2226 -0.12595,0.054 -0.278698,0.0787 -0.462496,0.0702 h -0.504119 l -0.147814,-0.58703 h 0.185208 c 0.330553,-0.002 0.506589,-0.16263 0.529167,-0.48224 0.0042,-0.26 0.03598,-0.4953 0.08996,-0.70344 0.05503,-0.20673 0.142164,-0.38735 0.259294,-0.54152 0.12029,-0.15134 0.27446,-0.27975 0.46108,-0.37994 0.18873,-0.10054 0.41663,-0.17639 0.68615,-0.22507 0.20179,-0.0325 0.39476,-0.0462 0.57679,-0.0409 0.18239,0.006 0.35878,0.0215 0.53093,0.0476"
         style="fill:#646263;fill-opacity:1;fill-rule:nonzero;stroke:none;stroke-width:0.35277778"
         id="path14073"
         inkscape:connector-curvature="0" />
      <path
         d="m 106.36955,179.19291 0.14817,0.58702 h -2.27789 l -0.1457,-0.58702 z"
         style="fill:#646263;fill-opacity:1;fill-rule:nonzero;stroke:none;stroke-width:0.35277778"
         id="path14077"
         inkscape:connector-curvature="0" />
      <path
         d="m 115.1963,179.19291 h -0.23989 c -0.14534,0 -0.28751,-0.0155 -0.42157,-0.048 -0.133,-0.0332 -0.25329,-0.0878 -0.3616,-0.16016 -0.10301,-0.072 -0.18344,-0.15099 -0.23953,-0.23812 -0.0596,-0.0896 -0.10301,-0.18063 -0.13088,-0.27305 -0.0279,-0.0935 -0.0441,-0.18627 -0.0529,-0.27764 -0.008,-0.0921 -0.0134,-0.17709 -0.0183,-0.25576 v -1.10138 h -0.96026 l -0.003,1.41605 c 0.005,0.11713 -0.008,0.22896 -0.0413,0.33408 -0.0314,0.10654 -0.0752,0.19368 -0.13194,0.266 -0.0508,0.0579 -0.11254,0.10301 -0.18063,0.13758 -0.0684,0.0325 -0.14252,0.0522 -0.22083,0.0586 -0.0787,0.006 -0.15875,-3.5e-4 -0.24307,-0.0219 -0.0832,-0.0226 -0.16298,-0.0568 -0.23848,-0.10618 -0.10407,-0.0646 -0.18415,-0.13582 -0.24059,-0.21238 -0.0561,-0.0776 -0.0977,-0.15557 -0.121,-0.23706 -0.025,-0.0833 -0.0402,-0.1651 -0.0416,-0.25153 -0.005,-0.084 -0.008,-0.16934 -0.008,-0.25612 v -1.12713 h -0.96132 v 1.12713 0.25188 c 0,0.0804 -0.008,0.15875 -0.0198,0.23284 -0.012,0.0727 -0.0324,0.14252 -0.0621,0.2106 -0.0296,0.066 -0.0741,0.13088 -0.13017,0.1898 -0.0568,0.0533 -0.12206,0.0995 -0.19615,0.13935 -0.0776,0.0399 -0.15839,0.066 -0.24729,0.0776 -0.0871,0.0152 -0.17816,0.012 -0.27129,-0.0102 -0.0917,-0.0194 -0.18274,-0.0646 -0.2667,-0.13053 -0.0864,-0.0656 -0.15134,-0.13794 -0.1972,-0.21661 -0.0444,-0.078 -0.0783,-0.15981 -0.0981,-0.24341 -0.0191,-0.0833 -0.0293,-0.16793 -0.0325,-0.25189 -0.004,-0.0882 -0.005,-0.17039 -0.005,-0.24941 v -1.12713 h -0.96167 l -0.005,1.50213 c -0.0102,0.14499 -0.0501,0.27058 -0.11713,0.37818 -0.0698,0.10477 -0.15839,0.19367 -0.26528,0.26564 -0.10937,0.0692 -0.23143,0.12277 -0.3676,0.15734 -0.13547,0.0353 -0.27587,0.0508 -0.42086,0.0508 h -0.35313 l 0.14887,0.58702 c 0.15804,0 0.32279,-0.008 0.49142,-0.0233 0.16933,-0.0166 0.33655,-0.0427 0.49812,-0.079 0.16439,-0.0381 0.32032,-0.0868 0.46884,-0.14641 0.14782,-0.0593 0.28293,-0.1344 0.40146,-0.22542 0.2413,0.18662 0.47378,0.31785 0.68933,0.39723 0.21766,0.078 0.42792,0.11183 0.62971,0.10442 0.20108,-0.012 0.40005,-0.0607 0.59443,-0.14923 0.19403,-0.0882 0.38523,-0.20637 0.57785,-0.35242 0.21061,0.16263 0.43145,0.2794 0.66252,0.34784 0.23107,0.0705 0.45825,0.10513 0.6805,0.0974 0.22296,-0.006 0.43145,-0.0501 0.63112,-0.12982 0.19862,-0.0787 0.37113,-0.18662 0.51506,-0.32314 0.11818,0.10795 0.25753,0.19438 0.42051,0.25647 0.16298,0.0639 0.33196,0.11359 0.50694,0.1464 0.17357,0.0335 0.34361,0.0557 0.51294,0.0649 0.16757,0.01 0.31609,0.0141 0.44309,0.0141 h 0.14711 z"
         style="fill:#646263;fill-opacity:1;fill-rule:nonzero;stroke:none;stroke-width:0.35277778"
         id="path14081"
         inkscape:connector-curvature="0" />
      <path
         d="m 116.55368,179.19291 0.14852,0.58702 h -1.35467 l -0.14816,-0.58702 z"
         style="fill:#646263;fill-opacity:1;fill-rule:nonzero;stroke:none;stroke-width:0.35277778"
         id="path14085"
         inkscape:connector-curvature="0" />
      <path
         d="m 118.58328,175.48578 c 0.067,0 0.12947,0.0134 0.18803,0.037 0.0593,0.0261 0.10971,0.0621 0.15416,0.10583 0.0448,0.0445 0.0783,0.0945 0.10513,0.15523 0.025,0.0571 0.0402,0.11994 0.0402,0.18732 0,0.0663 -0.0152,0.12841 -0.0402,0.18592 -0.0268,0.06 -0.0603,0.11112 -0.10513,0.15275 -0.0444,0.0437 -0.0949,0.079 -0.15416,0.10442 -0.0586,0.0261 -0.121,0.0388 -0.18803,0.0388 -0.0667,0 -0.12912,-0.0127 -0.18627,-0.0388 -0.0596,-0.0254 -0.11183,-0.0607 -0.15628,-0.10442 -0.0444,-0.0416 -0.0783,-0.0928 -0.10371,-0.15275 -0.0265,-0.0575 -0.0399,-0.1196 -0.0399,-0.18592 0,-0.0674 0.0134,-0.13017 0.0399,-0.18732 0.0254,-0.0607 0.0593,-0.11078 0.10371,-0.15523 0.0444,-0.0437 0.0967,-0.0797 0.15628,-0.10583 0.0572,-0.0236 0.1196,-0.037 0.18627,-0.037 m -0.44203,1.34973 h 0.96202 c -10e-4,0.24659 -0.003,0.49424 -0.003,0.73871 v 0.73237 c 0,0.19791 -0.0353,0.37253 -0.10478,0.52282 -0.0699,0.14958 -0.16333,0.27975 -0.28151,0.38876 -0.11889,0.1083 -0.25682,0.19967 -0.41522,0.27375 -0.1584,0.0706 -0.32562,0.12842 -0.50059,0.17216 -0.17674,0.0434 -0.35631,0.0723 -0.5394,0.0914 -0.18415,0.0148 -0.36195,0.0243 -0.53375,0.0243 h -0.073 l -0.14675,-0.58702 h 0.45825 c 0.1524,0 0.29881,-0.0173 0.44133,-0.0561 0.14252,-0.0385 0.26811,-0.097 0.37818,-0.17639 0.1083,-0.0769 0.19544,-0.17463 0.26105,-0.29281 0.0649,-0.11783 0.0974,-0.25753 0.0974,-0.41522 z"
         style="fill:#646263;fill-opacity:1;fill-rule:nonzero;stroke:none;stroke-width:0.35277778"
         id="path14089"
         inkscape:connector-curvature="0" />
    </g>
  </g>
</svg>
