<?xml version="1.0" encoding="utf-8"?>
<!-- Generator: Adobe Illustrator 12.0.1, SVG Export Plug-In . SVG Version: 6.00 Build 51448)  -->
<!DOCTYPE svg PUBLIC "-//W3C//DTD SVG 1.0//EN" "http://www.w3.org/TR/2001/REC-SVG-20010904/DTD/svg10.dtd" [
	<!ENTITY ns_svg "http://www.w3.org/2000/svg">
	<!ENTITY ns_xlink "http://www.w3.org/1999/xlink">
]>
<svg  version="1.0" id="Ebene_1" xmlns="&ns_svg;" xmlns:xlink="&ns_xlink;" width="181.896" height="29.538"
	 viewBox="0 0 181.896 29.538" overflow="visible" enable-background="new 0 0 181.896 29.538" xml:space="preserve">
<polygon fill-rule="evenodd" clip-rule="evenodd" fill="#FFFFFF" points="0,0 181.896,0 181.896,29.538 0,29.538 0,0 "/>
<path fill="#FFDC00" d="M119.697,5.827c-0.374,0.071-2.49,1.114-3.035,1.417c-1.826,0.859-13.661,12.956-13.661,12.956
	s-1.233,1.51-3.605,2.703c-2.371,1.191-7.067,1.209-7.067,1.209H3.644V25.5h106.614c0,0,2.847-0.273,4.838-1.127
	c1.992-0.617,4.791-3.369,4.791-3.369L131.84,8.862c0,0,1.53-1.245,2.235-1.618c0.706-0.374,4.216-1.062,4.216-1.062h40.531V5.115
	h-52.911C125.911,5.115,120.516,5.417,119.697,5.827L119.697,5.827z"/>
<path fill="#172980" d="M134.075,7.244c-0.705,0.373-2.235,1.618-2.235,1.618l-11.953,12.142c0,0-2.799,2.752-4.791,3.369
	c-1.991,0.854-4.838,1.127-4.838,1.127H3.644v1.387h121.94c0,0,7.063,1.043,11.474-5.027c5.597-5.408,10.388-12.238,14.799-13.472
	c1.519-0.664,5.455-1.138,5.455-1.138h21.511V6.182h-40.531C138.291,6.182,134.781,6.87,134.075,7.244z M107.507,4.048
	c0,0-3.677,0.142-5.49,0.854c-1.495,0.463-3.771,2.17-3.771,2.17L87.11,18.313c0,0-2.81,2.633-4.66,3.523
	c-1.85,0.889-4.162,0.889-4.162,0.889H3.644v1.387h88.685c0,0,4.696-0.018,7.067-1.209c2.372-1.193,3.605-2.703,3.605-2.703
	s11.835-12.096,13.661-12.956c0.545-0.303,2.661-1.346,3.035-1.417c0.818-0.41,6.214-0.712,6.214-0.712h52.911V4.048H107.507z
	 M169.662,19.381l-8.324-5.692h-10.21l7.933,1.53l1.851,1.495l-1.711,1.109c-0.056-0.303-0.095-0.611-0.095-0.932
	c0-0.018,0.001-0.031,0.001-0.049l-1.54,0.582c0,0,0.835,0.314,1.414,0.541l-2.623,1.701h16.934l-1.957-1.494L169.662,19.381z
	 M163.97,14.934l2.455,1.743l1.601-0.89l0.572-0.16c0.091,0.371,0.153,0.754,0.161,1.154c0.485-0.199,1.455-0.638,1.455-0.638
	l-1.294-0.606l7.644-2.134h-10.281L163.97,14.934z M159.269,15.611l-1.702,0.426l1.548,0.67
	C159.127,16.33,159.18,15.963,159.269,15.611z M159.399,21.604l1.504-0.799c-0.285-0.242-0.543-0.516-0.771-0.816L159.399,21.604z
	 M160.911,22.67l1.188-1.127c-0.326-0.141-0.635-0.316-0.92-0.525L160.911,22.67z M162.903,23.346l0.782-1.438
	c-0.393-0.02-0.774-0.086-1.137-0.199L162.903,23.346z M165.037,23.295l0.214-1.568c-0.36,0.105-0.737,0.168-1.125,0.186
	L165.037,23.295z M165.681,21.576l1.118,1.184l-0.115-1.736C166.374,21.248,166.036,21.432,165.681,21.576z M166.954,20.814
	l1.267,0.719l-0.628-1.365C167.398,20.402,167.187,20.619,166.954,20.814z M168.754,17.117c-0.016,0.336-0.061,0.66-0.134,0.975
	c0.395-0.057,1.434-0.277,1.434-0.277L168.754,17.117z M164.325,10.522l-0.617,1.349c0.075-0.004,0.15-0.012,0.227-0.012
	c0.314,0,0.621,0.034,0.92,0.094L164.325,10.522z M162.479,12.093c0.324-0.106,0.662-0.177,1.01-0.21l-0.656-1.29L162.479,12.093z
	 M162.263,12.175l-1.067-1.119l0.172,1.578C161.647,12.45,161.947,12.297,162.263,12.175z M159.736,12.017l0.662,1.455
	c0.209-0.235,0.44-0.449,0.689-0.639L159.736,12.017z M167.403,11.447l-1.183,1.011c0.318,0.179,0.612,0.396,0.883,0.641
	L167.403,11.447z M165.012,11.989c0.343,0.082,0.671,0.203,0.981,0.355l-0.048-1.608L165.012,11.989z M40.778,19.666h1.224v-4.304
	h-1.224V19.666z M28.593,18.195l-2.023-2.833h-1.623v4.304h1.224v-3.149l2.247,3.149h1.398v-4.304h-1.223V18.195z M62.134,19.666
	l2.64-4.278l-1.231,0l-0.975,1.579l-1.315-1.579l-1.473-0.026l2.124,2.683l-1,1.621H62.134z M49.067,19.666h1.623l0.649-2.945
	l0.649,2.945h1.673l1.273-4.304h-1.224l-0.916,3.095l-0.682-3.095h-1.548l-0.661,2.999l-0.886-2.999h-1.224L49.067,19.666z
	 M59.529,19.633V15.33h-4.07v1.005h1.353l-2.002,3.298l1.371,0.033l0.504-0.832h1.622v0.799H59.529z M57.294,17.83l0.907-1.495
	h0.105v1.495H57.294z M39.63,19.633V15.33h-4.07v1.005h1.352l-2.001,3.298l1.369,0.033l0.504-0.832h1.622v0.799H39.63z
	 M37.394,17.83l0.908-1.495h0.104v1.495H37.394z M23.824,19.633V15.33h-4.07v1.005h1.353l-2.002,3.298l1.37,0.033l0.504-0.832h1.622
	v0.799H23.824z M21.588,17.83l0.907-1.495h0.105v1.495H21.588z M67.782,19.662c0.497-0.064,1.436-0.447,1.436-1.439
	c0-1.02-0.828-1.205-1.329-1.23c-0.023-0.002-1.586-0.002-1.855-0.002c-0.088-0.016-0.312-0.195-0.312-0.313
	c0-0.178,0.184-0.304,0.286-0.361h2.811v-0.973h-2.922l-0.173,0.032c-0.373,0.142-1.001,0.531-1.001,1.302
	c0,0.79,0.653,1.155,1.092,1.206l0.028,0.004h1.901c-0.008,0.002,0.278,0.039,0.278,0.336c0,0.291-0.234,0.393-0.342,0.412h-3.057
	v1.031h3.097L67.782,19.662z M6.449,19.662c0.497-0.064,1.436-0.447,1.436-1.439c0-1.02-0.828-1.205-1.328-1.23
	C6.533,16.99,4.97,16.99,4.701,16.99c-0.088-0.016-0.312-0.195-0.312-0.313c0-0.178,0.184-0.304,0.286-0.361h2.81v-0.973H4.564
	l-0.174,0.032c-0.371,0.142-1,0.531-1,1.302c0,0.79,0.652,1.155,1.091,1.206l0.028,0.004h1.901
	c-0.009,0.002,0.278,0.039,0.278,0.336c0,0.291-0.234,0.393-0.343,0.412H3.291v1.031h3.097L6.449,19.662z M17.292,19.65
	c0.546-0.129,1.579-0.736,1.579-2.277c0-1.619-1.056-1.993-1.615-2.011h-2.97v4.304h2.948L17.292,19.65z M15.509,18.721v-2.345
	h1.564c0.131,0.011,0.732,0.119,0.732,0.997c0,0.902-0.441,1.283-0.616,1.348H15.509z M8.568,15.362c0,0,0,2.216,0,3.315
	s1.224,0.988,1.224,0.988h3.371v-4.304h-1.224v3.401h-1.761c-0.213,0-0.386-0.178-0.386-0.398c0-0.002,0-0.004,0-0.004h0v-2.999
	H8.568z M43.125,19.666h1.224v-1.338h1.166l0.773,1.313h1.436L46.817,18.1c0.435-0.23,0.736-0.652,0.736-1.326
	c0-1.135-0.844-1.41-1.757-1.41v-0.001h-2.671V19.666z M44.349,16.402h1.447v-0.007c0.398,0,0.583,0.122,0.583,0.455
	c0,0.285-0.136,0.408-0.422,0.438h-1.608V16.402z M69.077,5.727l-0.649,1.237l-0.099,3.263l-0.117,1.168l0.633-1.512L69.077,5.727z
	 M64.682,3.89l-0.716-0.67L63.2,4.147l0.683,0.652L64.682,3.89z M57.573,10.743c0,0-1.315,1.082-2.746,1.581
	c-0.083-0.017-0.018,0.154-0.018,0.154s0.85,0,1.882-0.292c1.032-0.292,1.432-1.546,1.432-1.546s1.231-0.017,1.864-0.137
	c3.462-0.739,6.842-3.161,6.759-3.521c-0.017-0.086-2.298,0.12-2.265-0.052c0.067-0.412,2.68-1.254,2.68-1.254
	c1.232-0.413,2.231-2.783,2.231-2.783l-0.267-0.309c0,0-0.632,1.511-1.382,1.992c-0.865,0.619-2.747,1.1-3.279,1.563
	C63.933,6.604,63.6,7.497,63.6,7.497l1.665,0.138c0,0-2.797,1.821-3.097,1.666c-0.1-0.086,0.916-1.374,0.833-1.77
	c0.083-0.584-0.683-0.498-0.85-0.446s-1.365,1.116-1.365,1.116l0.25-2.199c0,0,0.05-2.199,0-2.199
	C60.77,3.769,60.32,5.041,60.32,5.041s-0.017,2.078-0.05,3.022c-0.033,0.946-0.566,1.255-0.566,1.255s-0.649,0.807-1.282,0.412
	c0,0,0.167-1.151-0.466-1.253c-0.633-0.104-1.382,1.219-1.349,1.477C56.558,10.485,57.573,10.743,57.573,10.743z M61.535,8.029
	c0.134-0.034,0.666-0.034,0.699,0.189s-0.749,0.791-0.749,0.791S59.92,9.781,59.871,9.61C60.154,9.404,61.402,8.063,61.535,8.029z
	 M50.116,11.293c0,0,1.331,0.498,2.813,0.017c0.184-0.051,2.48-0.67,2.63-3.384c-0.533-0.773-2.415,1.236-2.415,1.236l0.2-1.597
	l0.1-2.955l-0.649,0.894c0,0-0.133,3.366-0.15,3.779c-0.017,0.412-0.583,1.237-0.716,1.46c-0.133,0.224-1.83,0.378-1.83,0.378
	L50.116,11.293z M54.094,8.905c0.133-0.035,0.566-0.12,0.649,0.257c0.017,0.104-0.516,0.602-0.516,0.602l-0.633,0.241
	c0,0-1.082,0.583-1.064,0.429C52.662,10.262,53.961,8.94,54.094,8.905z M48.768,8.081c0,0-0.3,3.195-0.366,3.298
	c-0.067,0.103,0.183,0.566,0.183,0.566s0.849-1.94,0.716-3.624c0.033-0.206,0.333-1.357,0.299-1.443
	C49.25,6.81,48.768,8.081,48.768,8.081z M42.609,10.434c0,0,0.333,0.138,0.316,0.206c-0.066,0.24-2.563,1.546-2.563,1.546
	s0.932,0.052,1.698-0.069c0.766-0.12,1.282-1.529,1.282-1.529s0.482-0.017,0.699-0.068c2.847-1.168,3.479-2.491,3.479-2.491
	l-0.017-0.103c0,0-2.197,0.017-2.18-0.103c0.1-0.327,0.664-0.537,2.247-1.031c2.364-0.739,2.962-3.384,2.962-3.384l-0.133-0.189
	c0,0-0.915,1.804-2.047,2.439c-1.132,0.635-2.747,1.083-2.747,1.083s-1.282,1.408-1.199,1.598c0.083,0.188,2.047,0.24,2.047,0.24
	s-2.397,1.581-2.747,1.306c0,0,0.4-1.203-0.482-1.357C42.609,8.51,42.01,9.644,41.96,9.815
	C41.843,10.314,42.609,10.434,42.609,10.434z M31.938,10.588c0,0,1.948,1.271,3.845,1.031c3.497,0.017,5.46-3.058,5.46-3.058
	l0.299-1.718l-0.782,1.082v0.669c0,0-1.698,1.873-4.195,1.958s-4.028-1.03-4.028-1.03l-2.297,2.319l0.166,0.154L31.938,10.588z
	 M46.221,11.55c0.017,0.172,0.899-0.48,0.799-0.704c-0.1-0.223-0.666-0.79-0.732-0.687c0,0-0.582,0.772-0.649,0.824
	C45.572,11.035,46.204,11.379,46.221,11.55z M15.049,5.917c0.017,0.172,0.898-0.481,0.799-0.705c-0.1-0.223-0.666-0.79-0.732-0.687
	c0,0-0.583,0.773-0.649,0.824C14.399,5.401,15.032,5.744,15.049,5.917z M37.183,12.925c0,0,0.449,0.653,0.565,0.636
	c0.117-0.017,0.882-0.739,0.866-0.808s-0.565-0.704-0.565-0.704s-0.783,0.876-0.866,0.825c-0.083-0.052-0.483-0.704-0.583-0.636
	c-0.1,0.069-0.965,0.738-0.948,0.824c0.016,0.086,0.616,0.636,0.699,0.618C36.433,13.664,37.183,12.925,37.183,12.925z
	 M13.456,12.902c0.116-0.018,0.882-0.739,0.866-0.808c-0.017-0.068-0.566-0.704-0.566-0.704s-0.782,0.876-0.865,0.825
	c-0.083-0.052-0.483-0.705-0.583-0.636c-0.1,0.069-0.965,0.739-0.948,0.825c0.017,0.086,0.615,0.636,0.699,0.618
	c0.083-0.017,0.833-0.756,0.833-0.756S13.34,12.919,13.456,12.902z M32.704,8.149c0.084-0.017,0.866-0.842,0.85-0.962
	c-0.017-0.121-0.583-0.584-0.583-0.584s0.815-0.739,0.732-0.894c-0.083-0.154-0.599-0.601-0.699-0.567
	c-0.065,0.022-0.916,0.739-0.833,0.825c0.083,0.085,0.716,0.499,0.649,0.584c-0.067,0.086-0.766,0.721-0.7,0.842
	C32.188,7.514,32.622,8.167,32.704,8.149z M4.833,7.777C4.917,7.76,5.699,6.936,5.683,6.815C5.666,6.695,5.1,6.231,5.1,6.231
	s0.816-0.739,0.733-0.894s-0.6-0.601-0.699-0.567C5.067,4.793,4.218,5.51,4.301,5.596S5.016,6.094,4.95,6.18
	c-0.067,0.085-0.766,0.721-0.7,0.841C4.317,7.142,4.75,7.795,4.833,7.777z M37.965,6.861c0,0,0.033,0.155,0.366,0.155
	s0.815-0.996,0.815-0.996l-0.15-0.326c0,0-0.416,0.721-0.582,0.738c-0.167,0.017-0.25-0.499-0.25-0.499s-0.366,0.808-0.699,0.636
	c-0.167-0.103,0.133-0.825,0.133-0.825S36.65,6.535,36.982,7.05C37.249,7.445,37.965,6.861,37.965,6.861z M9.861,6.695
	c0,0,0.033,0.154,0.366,0.154c0.333,0,0.815-0.997,0.815-0.997l-0.15-0.326c0,0-0.416,0.722-0.583,0.739s-0.25-0.499-0.25-0.499
	S9.694,6.575,9.361,6.403C9.195,6.3,9.495,5.579,9.495,5.579s-0.949,0.79-0.616,1.306C9.145,7.279,9.861,6.695,9.861,6.695z
	 M28.56,12.564l-0.033,0.464c0,0,0.05-0.069,0.316-0.448c0.267-0.377,0.317-3.074,0.317-3.074l0.15-1.495
	c0,0-0.683,0.962-0.732,1.117C28.526,9.283,28.56,12.564,28.56,12.564z M22.201,9.695c0,0,0.117-0.034,0.033,0.12
	c-0.116,0.344-2.696,1.804-2.696,1.804s1.781-0.224,2.031-0.413c0.25-0.189,1.115-1.409,1.115-1.409l1.049-0.67
	c0,0,0.583,0.172,0.749,0.155c0.167-0.017,0.616-0.464,0.616-0.464s0.433,0.206,0.633,0.189c0.2-0.018,0.533-0.516,0.533-0.516
	s0.35,0.292,0.633,0.24c1.032-0.189,1.564-1.701,1.564-1.701l0.616-3.539l-0.699,1.168c0,0-0.3,2.268-0.25,2.268
	c0.05,0-0.483,0.842-0.816,0.894c-0.333,0.052-0.416-0.344-0.416-0.344l-0.649,0.687c0,0-0.517,0.172-0.55,0.017
	c-0.033-0.154,0.05-0.395,0.05-0.395s-0.899,1.117-1.348,0.653c0.017-0.103,0.161-0.445,0.161-0.445s-1.293,1.098-1.51,0.96
	c0,0,0.167-1.391-0.399-1.391c-0.732,0.017-1.282,1.391-1.332,1.478C21.269,9.798,22.201,9.695,22.201,9.695z M19.338,9.798
	c-0.083,0.344-2.314,1.821-2.314,1.821l1.481-0.224c0,0,1.148-0.756,1.398-2.371s-1.032-1.512-1.032-1.512l-0.516,1.065
	C18.356,8.579,19.421,8.733,19.338,9.798z M17.673,4.697l0.15-0.704c0,0-0.75,1.099-0.783,1.546s-0.05,2.336-0.05,2.336l-0.232,1.46
	c0,0,0.599-0.756,0.849-2.079C17.624,6.913,17.673,4.697,17.673,4.697z M4.456,10.279c0,0,1.581,1.202,3.995,1.1
	c3.196-0.137,5.244-2.25,5.244-2.25s0.383,0.447,0.849,0.43c0.932-0.121,1.332-1.701,1.332-1.701V7.565c0,0-0.667,1.168-1.049,1.22
	c-0.383,0.051-0.583-0.413-0.882-0.36c0,0-1.932,1.751-4.778,1.958c-2.847,0.206-4.278-1.22-4.278-1.22l-1.815,2.25l0.3-0.017
	L4.456,10.279z"/>
</svg>
